# xmcd
#
# Track frame offsets: 
#        150
#        18430
#        46068
#        60420
#        73383
#        89288
#        132515
#        148685
#        164326
#        181675
#        202386
#        217018
#        230164
#        245647
#        270819
#        290156
#
# Disc length: 4129 seconds
#
# Revision: 0
# Processed by: cddbd v1.5.2PL0 Copyright (c) Steve Scherf et al.
# Submitted via: ExactAudioCopy v1.1
#
DISCID=fb101f10
DTITLE=Raymond Van Het Groenewoud - Archivaris - CD 3
DYEAR=2018
DGENRE=Pop
TTITLE0=Ze Dansen (Live)
TTITLE1=Ze Weet Niet Wat Ze Doet (Live)
TTITLE2=Zien We Morgen Nog Het Licht (Live)
TTITLE3=Ik Ben God Niet
TTITLE4=Niet Huilen
TTITLE5=Dit Is M'n Verhaal
TTITLE6=Lied Van De Zee
TTITLE7=Er Is Geen Haast
TTITLE8=Commentaar (Live)
TTITLE9=Winkelstraat (Live)
TTITLE10=Vrouwen (Live)
TTITLE11=Wachten Op De Wagen In De Nacht (Live)
TTITLE12=In Mijn Hoofd (Live)
TTITLE13=Twee Meisjes
TTITLE14=Jij En Ik
TTITLE15=Zo Zot Van Haar
EXTD=
EXTT0=
EXTT1=
EXTT2=
EXTT3=
EXTT4=
EXTT5=
EXTT6=
EXTT7=
EXTT8=
EXTT9=
EXTT10=
EXTT11=
EXTT12=
EXTT13=
EXTT14=
EXTT15=
PLAYORDER=
